<svg width="158" height="185" viewBox="0 0 158 185" fill="none" xmlns="http://www.w3.org/2000/svg">
<g filter="url(#filter0_d_361_264)">
<path d="M4 75.3763H59.8139V136.699H4V75.3763Z" fill="url(#paint0_linear_361_264)"/>
<path fill-rule="evenodd" clip-rule="evenodd" d="M98.186 48.5474H23.7674V71.5436H63.3023V130.312H98.186V48.5474Z" fill="url(#paint1_linear_361_264)"/>
<path d="M154 0H41.2093V44.7147H101.674V123.924H154V0Z" fill="url(#paint2_linear_361_264)"/>
<path d="M14.4242 145.852L28.0984 164.738V151.646C28.0984 149.819 27.8599 148.584 27.383 147.94C26.7289 147.072 25.632 146.653 24.0922 146.683V145.852H33.2492V146.683C32.0773 146.847 31.287 147.065 30.8782 147.334C30.483 147.589 30.1696 148.015 29.938 148.614C29.7199 149.198 29.6109 150.209 29.6109 151.646V177H28.916L10.1728 151.646V171.004C10.1728 172.756 10.5339 173.938 11.2561 174.552C11.9919 175.166 12.8299 175.473 13.7702 175.473H14.4242V176.304H4.59275V175.473C6.11891 175.458 7.18178 175.114 7.78134 174.44C8.3809 173.766 8.68069 172.621 8.68069 171.004V149.512L8.08794 148.704C7.502 147.895 6.98419 147.364 6.53452 147.109C6.08485 146.855 5.43759 146.713 4.59275 146.683V145.852H14.4242Z" fill="url(#paint3_linear_361_264)"/>
<path d="M78.6003 165.929L86.1221 145.852H97.4048V146.683H96.5054C95.6879 146.683 95.0338 146.84 94.5432 147.154C94.2026 147.364 93.93 147.716 93.7257 148.21C93.5758 148.569 93.5008 149.505 93.5008 151.017V171.094C93.5008 172.651 93.5758 173.624 93.7257 174.013C93.8755 174.402 94.1821 174.747 94.6454 175.046C95.1087 175.331 95.7287 175.473 96.5054 175.473H97.4048V176.304H82.9335V175.473H83.8328C84.6504 175.473 85.3045 175.316 85.7951 175.001C86.1357 174.792 86.4082 174.432 86.6126 173.923C86.7625 173.564 86.8375 172.621 86.8375 171.094V148.524L76.2088 176.304H75.7183L64.9261 148.726V170.173C64.9261 171.67 64.9602 172.591 65.0283 172.935C65.2055 173.684 65.587 174.298 66.173 174.777C66.7725 175.241 67.7059 175.473 68.9732 175.473V176.304H59.4892V175.473H59.7753C60.3885 175.488 60.9608 175.383 61.4923 175.159C62.0237 174.919 62.4257 174.605 62.6982 174.215C62.9707 173.826 63.182 173.28 63.3318 172.576C63.3591 172.411 63.3727 171.648 63.3727 170.285V151.017C63.3727 149.475 63.2978 148.517 63.1479 148.143C62.998 147.753 62.6914 147.416 62.2281 147.132C61.7648 146.833 61.1448 146.683 60.3681 146.683H59.4892V145.852H70.8128L78.6003 165.929Z" fill="url(#paint4_linear_361_264)"/>
<path d="M138.856 167.635H129.066L127.901 170.6C127.519 171.588 127.328 172.404 127.328 173.048C127.328 173.901 127.642 174.53 128.269 174.934C128.637 175.173 129.543 175.353 130.987 175.473V176.304H121.769V175.473C122.764 175.308 123.581 174.859 124.222 174.125C124.862 173.377 125.652 171.842 126.593 169.522L136.506 145.223H136.894L146.889 170.195C147.843 172.561 148.627 174.051 149.24 174.664C149.703 175.129 150.357 175.398 151.202 175.473V176.304H137.794V175.473H138.345C139.422 175.473 140.178 175.308 140.614 174.979C140.914 174.739 141.064 174.395 141.064 173.946C141.064 173.676 141.023 173.399 140.941 173.115C140.914 172.98 140.71 172.419 140.328 171.431L138.856 167.635ZM138.162 165.974L134.033 155.486L129.781 165.974H138.162Z" fill="url(#paint5_linear_361_264)"/>
</g>
<defs>
<filter id="filter0_d_361_264" x="0" y="0" width="158" height="185" filterUnits="userSpaceOnUse" color-interpolation-filters="sRGB">
<feFlood flood-opacity="0" result="BackgroundImageFix"/>
<feColorMatrix in="SourceAlpha" type="matrix" values="0 0 0 0 0 0 0 0 0 0 0 0 0 0 0 0 0 0 127 0" result="hardAlpha"/>
<feOffset dy="4"/>
<feGaussianBlur stdDeviation="2"/>
<feComposite in2="hardAlpha" operator="out"/>
<feColorMatrix type="matrix" values="0 0 0 0 0 0 0 0 0 0 0 0 0 0 0 0 0 0 0.25 0"/>
<feBlend mode="normal" in2="BackgroundImageFix" result="effect1_dropShadow_361_264"/>
<feBlend mode="normal" in="SourceGraphic" in2="effect1_dropShadow_361_264" result="shape"/>
</filter>
<linearGradient id="paint0_linear_361_264" x1="154" y1="0" x2="-33.1275" y2="58.7565" gradientUnits="userSpaceOnUse">
<stop stop-color="#D4A86E"/>
<stop offset="1" stop-color="#674923"/>
</linearGradient>
<linearGradient id="paint1_linear_361_264" x1="154" y1="0" x2="-33.1275" y2="58.7565" gradientUnits="userSpaceOnUse">
<stop stop-color="#D4A86E"/>
<stop offset="1" stop-color="#674923"/>
</linearGradient>
<linearGradient id="paint2_linear_361_264" x1="154" y1="0" x2="-33.1275" y2="58.7565" gradientUnits="userSpaceOnUse">
<stop stop-color="#D4A86E"/>
<stop offset="1" stop-color="#674923"/>
</linearGradient>
<linearGradient id="paint3_linear_361_264" x1="154" y1="0" x2="-33.1275" y2="58.7565" gradientUnits="userSpaceOnUse">
<stop stop-color="#D4A86E"/>
<stop offset="1" stop-color="#674923"/>
</linearGradient>
<linearGradient id="paint4_linear_361_264" x1="154" y1="0" x2="-33.1275" y2="58.7565" gradientUnits="userSpaceOnUse">
<stop stop-color="#D4A86E"/>
<stop offset="1" stop-color="#674923"/>
</linearGradient>
<linearGradient id="paint5_linear_361_264" x1="154" y1="0" x2="-33.1275" y2="58.7565" gradientUnits="userSpaceOnUse">
<stop stop-color="#D4A86E"/>
<stop offset="1" stop-color="#674923"/>
</linearGradient>
</defs>
</svg>
