<svg width="54" height="54" viewBox="0 0 54 54" fill="none" xmlns="http://www.w3.org/2000/svg">
<circle cx="27" cy="27" r="27" fill="white"/>
<path fill-rule="evenodd" clip-rule="evenodd" d="M27.411 41.9483C29.3279 40.209 31.1019 38.3184 32.716 36.295C36.116 32.0233 38.1844 27.8116 38.3244 24.0666C38.3797 22.5446 38.1278 21.0271 37.5836 19.6046C37.0394 18.1822 36.214 16.884 35.1568 15.7876C34.0997 14.6913 32.8324 13.8193 31.4307 13.2236C30.0289 12.628 28.5215 12.3211 26.9985 12.3211C25.4755 12.3211 23.9681 12.628 22.5664 13.2236C21.1647 13.8193 19.8974 14.6913 18.8402 15.7876C17.783 16.884 16.9577 18.1822 16.4134 19.6046C15.8692 21.0271 15.6173 22.5446 15.6727 24.0666C15.8143 27.8116 17.8843 32.0233 21.2827 36.295C22.8968 38.3184 24.6708 40.209 26.5877 41.9483C26.7721 42.115 26.9093 42.2361 26.9993 42.3116L27.411 41.9483ZM25.7694 43.89C25.7694 43.89 13.666 33.6966 13.666 23.6666C13.666 20.1304 15.0708 16.739 17.5713 14.2386C20.0717 11.7381 23.4631 10.3333 26.9993 10.3333C30.5356 10.3333 33.927 11.7381 36.4274 14.2386C38.9279 16.739 40.3327 20.1304 40.3327 23.6666C40.3327 33.6966 28.2293 43.89 28.2293 43.89C27.556 44.51 26.4477 44.5033 25.7694 43.89ZM26.9993 28.3333C28.237 28.3333 29.424 27.8416 30.2992 26.9665C31.1744 26.0913 31.666 24.9043 31.666 23.6666C31.666 22.429 31.1744 21.242 30.2992 20.3668C29.424 19.4916 28.237 19 26.9993 19C25.7617 19 24.5747 19.4916 23.6995 20.3668C22.8243 21.242 22.3327 22.429 22.3327 23.6666C22.3327 24.9043 22.8243 26.0913 23.6995 26.9665C24.5747 27.8416 25.7617 28.3333 26.9993 28.3333ZM26.9993 30.3333C25.2312 30.3333 23.5355 29.6309 22.2853 28.3807C21.0351 27.1304 20.3327 25.4348 20.3327 23.6666C20.3327 21.8985 21.0351 20.2028 22.2853 18.9526C23.5355 17.7024 25.2312 17 26.9993 17C28.7675 17 30.4632 17.7024 31.7134 18.9526C32.9636 20.2028 33.666 21.8985 33.666 23.6666C33.666 25.4348 32.9636 27.1304 31.7134 28.3807C30.4632 29.6309 28.7675 30.3333 26.9993 30.3333Z" fill="url(#paint0_linear_235_434)"/>
<defs>
<linearGradient id="paint0_linear_235_434" x1="40.3327" y1="10.3333" x2="6.62871" y2="20.122" gradientUnits="userSpaceOnUse">
<stop stop-color="#D4A86E"/>
<stop offset="1" stop-color="#674923"/>
</linearGradient>
</defs>
</svg>
