<svg width="77" height="91" viewBox="0 0 77 91" fill="none" xmlns="http://www.w3.org/2000/svg">
<path d="M0 38.7528H28.6512V70.2805H0V38.7528Z" fill="url(#paint0_linear_277_191)"/>
<path fill-rule="evenodd" clip-rule="evenodd" d="M48.3488 24.9594H10.1473V36.7823H30.4419V66.9963H48.3488V24.9594Z" fill="url(#paint1_linear_277_191)"/>
<path d="M77 0H19.1008V22.9889H50.1395V63.7122H77V0Z" fill="url(#paint2_linear_277_191)"/>
<path d="M5.35111 74.986L12.3705 84.696V77.9648C12.3705 77.0258 12.2481 76.3907 12.0033 76.0598C11.6675 75.6133 11.1044 75.3978 10.314 75.4132V74.986H15.0146V75.4132C14.413 75.4979 14.0073 75.6095 13.7975 75.748C13.5946 75.8789 13.4337 76.0982 13.3148 76.4061C13.2029 76.7063 13.1469 77.2259 13.1469 77.9648V91H12.7902L3.1687 77.9648V87.9173C3.1687 88.8178 3.35406 89.4259 3.72479 89.7415C4.10252 90.0571 4.5327 90.2149 5.01535 90.2149H5.35111V90.6421H0.304279V90.2149C1.08771 90.2072 1.63331 90.0302 1.94109 89.6838C2.24886 89.3374 2.40275 88.7486 2.40275 87.9173V76.868L2.09847 76.4523C1.79769 76.0367 1.53189 75.7634 1.30105 75.6326C1.07022 75.5017 0.737963 75.4286 0.304279 75.4132V74.986H5.35111Z" fill="url(#paint3_linear_277_191)"/>
<path d="M38.2948 85.3079L42.156 74.986H47.9478V75.4132H47.4861C47.0664 75.4132 46.7307 75.494 46.4789 75.6557C46.304 75.7634 46.1641 75.9443 46.0592 76.1983C45.9822 76.383 45.9438 76.8641 45.9438 77.6415V87.9635C45.9438 88.764 45.9822 89.2643 46.0592 89.4644C46.1361 89.6645 46.2935 89.8416 46.5313 89.9955C46.7691 90.1418 47.0874 90.2149 47.4861 90.2149H47.9478V90.6421H40.5192V90.2149H40.9809C41.4006 90.2149 41.7363 90.1341 41.9881 89.9724C42.163 89.8647 42.3029 89.6799 42.4078 89.4182C42.4848 89.2335 42.5232 88.7486 42.5232 87.9635V76.3599L37.0672 90.6421H36.8154L31.2754 76.4639V87.4901C31.2754 88.2598 31.2929 88.7332 31.3279 88.9102C31.4188 89.2951 31.6147 89.6107 31.9155 89.857C32.2232 90.0956 32.7024 90.2149 33.3529 90.2149V90.6421H28.4844V90.2149H28.6313C28.9461 90.2226 29.2399 90.1687 29.5127 90.0532C29.7855 89.9301 29.9919 89.7684 30.1318 89.5683C30.2717 89.3682 30.3801 89.0872 30.457 88.7255C30.471 88.6408 30.478 88.2483 30.478 87.5478V77.6415C30.478 76.8487 30.4395 76.3561 30.3626 76.1637C30.2856 75.9635 30.1283 75.7904 29.8904 75.6441C29.6526 75.4902 29.3343 75.4132 28.9356 75.4132H28.4844V74.986H34.2972L38.2948 85.3079Z" fill="url(#paint4_linear_277_191)"/>
<path d="M69.2263 86.1854H64.2005L63.6024 87.7094C63.4066 88.2175 63.3086 88.637 63.3086 88.9679C63.3086 89.4067 63.4695 89.73 63.7913 89.9378C63.9801 90.0609 64.4453 90.1533 65.1868 90.2149V90.6421H60.4547V90.2149C60.9653 90.1302 61.385 89.8993 61.7138 89.5221C62.0425 89.1373 62.4482 88.3483 62.9309 87.1553L68.0197 74.6627H68.219L73.3498 87.5016C73.8395 88.7178 74.2417 89.4837 74.5564 89.7992C74.7943 90.0378 75.13 90.1764 75.5637 90.2149V90.6421H68.6807V90.2149H68.964C69.5166 90.2149 69.9048 90.1302 70.1287 89.9609C70.2825 89.8377 70.3595 89.6607 70.3595 89.4298C70.3595 89.2912 70.3385 89.1488 70.2965 89.0026C70.2825 88.9333 70.1776 88.6447 69.9818 88.1367L69.2263 86.1854ZM68.8696 85.331L66.7501 79.9391L64.5677 85.331H68.8696Z" fill="url(#paint5_linear_277_191)"/>
<defs>
<linearGradient id="paint0_linear_277_191" x1="77" y1="0" x2="-19.0853" y2="30.1236" gradientUnits="userSpaceOnUse">
<stop stop-color="#D4A86E"/>
<stop offset="1" stop-color="#674923"/>
</linearGradient>
<linearGradient id="paint1_linear_277_191" x1="77" y1="0" x2="-19.0853" y2="30.1236" gradientUnits="userSpaceOnUse">
<stop stop-color="#D4A86E"/>
<stop offset="1" stop-color="#674923"/>
</linearGradient>
<linearGradient id="paint2_linear_277_191" x1="77" y1="0" x2="-19.0853" y2="30.1236" gradientUnits="userSpaceOnUse">
<stop stop-color="#D4A86E"/>
<stop offset="1" stop-color="#674923"/>
</linearGradient>
<linearGradient id="paint3_linear_277_191" x1="77" y1="0" x2="-19.0853" y2="30.1236" gradientUnits="userSpaceOnUse">
<stop stop-color="#D4A86E"/>
<stop offset="1" stop-color="#674923"/>
</linearGradient>
<linearGradient id="paint4_linear_277_191" x1="77" y1="0" x2="-19.0853" y2="30.1236" gradientUnits="userSpaceOnUse">
<stop stop-color="#D4A86E"/>
<stop offset="1" stop-color="#674923"/>
</linearGradient>
<linearGradient id="paint5_linear_277_191" x1="77" y1="0" x2="-19.0853" y2="30.1236" gradientUnits="userSpaceOnUse">
<stop stop-color="#D4A86E"/>
<stop offset="1" stop-color="#674923"/>
</linearGradient>
</defs>
</svg>
