<svg width="54" height="54" viewBox="0 0 54 54" fill="none" xmlns="http://www.w3.org/2000/svg">
<circle cx="27" cy="27" r="27" fill="white"/>
<path d="M8.66894 29.1757C9.25466 29.745 9.84037 29.9293 10.9961 29.9457L23.6689 29.9957C23.7861 29.9957 23.8861 30.0128 23.9368 30.0628C23.9868 30.1129 24.0032 30.2136 24.0032 30.3307L24.0532 43.0043C24.0704 44.1593 24.2547 44.745 24.8404 45.3307C25.6275 46.1343 26.7325 46.0007 27.5525 45.1971C27.9882 44.7614 28.3397 44.0421 28.6575 43.3721L41.4647 15.75C42.1339 14.3443 42.0504 13.3057 41.3647 12.6357C40.6939 11.95 39.6561 11.8664 38.2504 12.5357L10.6275 25.3428C9.95751 25.6607 9.23823 26.0121 8.80251 26.4478C7.99894 27.2678 7.86537 28.3721 8.66894 29.1757ZM12.0675 27.4021C12.0504 27.3521 12.0839 27.3021 12.1847 27.2514L38.6854 15.0786C38.8197 15.0286 38.8861 15.0286 38.9368 15.0621C38.9704 15.1121 38.9704 15.1793 38.9197 15.3136L26.7497 41.8143C26.6997 41.915 26.6497 41.9486 26.5997 41.9314C26.5654 41.9314 26.5154 41.865 26.5154 41.7978L26.5989 28.5721C26.5989 28.1536 26.4489 27.8864 26.2811 27.7186C26.1132 27.5514 25.8454 27.4007 25.4275 27.4007L12.2018 27.4843C12.1347 27.4843 12.0682 27.4343 12.0682 27.4007" fill="url(#paint0_linear_235_446)"/>
<defs>
<linearGradient id="paint0_linear_235_446" x1="41.9251" y1="12.0753" x2="1.19821" y2="27.1653" gradientUnits="userSpaceOnUse">
<stop stop-color="#D4A86E"/>
<stop offset="1" stop-color="#674923"/>
</linearGradient>
</defs>
</svg>
