<svg width="131" height="131" viewBox="0 0 131 131" fill="none" xmlns="http://www.w3.org/2000/svg">
<path d="M120.083 65.5C120.083 35.3536 95.6462 10.9166 65.4998 10.9166C35.3535 10.9166 10.9165 35.3536 10.9165 65.5C10.9165 95.6463 35.3535 120.083 65.4998 120.083" stroke="white" stroke-width="8" stroke-linecap="round" stroke-linejoin="round"/>
<path d="M70.9584 11.1896C70.9584 11.1896 87.3334 32.75 87.3334 65.5M60.0417 119.81C60.0417 119.81 43.6667 98.25 43.6667 65.5C43.6667 32.75 60.0417 11.1896 60.0417 11.1896M14.3555 84.6042H65.5001M14.3555 46.3958H116.645" stroke="white" stroke-width="8" stroke-linecap="round" stroke-linejoin="round"/>
<path d="M119.422 97.7969C122.119 99.4562 121.95 103.49 119.177 103.807L105.165 105.395L98.8828 118.015C97.6383 120.52 93.7901 119.292 93.1515 116.191L86.3013 82.8083C85.7609 80.1883 88.1189 78.5399 90.3951 79.9427L119.422 97.7969Z" stroke="white" stroke-width="8"/>
</svg>
