<svg width="149" height="149" viewBox="0 0 149 149" fill="none" xmlns="http://www.w3.org/2000/svg">
<path d="M70.1543 14.0308L32.9043 27.9995C28.0618 29.862 24.8335 34.4562 24.8335 39.6712V68.9125C24.8335 100.265 46.0039 129.506 74.5002 136.645C102.996 129.506 124.167 100.265 124.167 68.9125V39.6712C124.162 37.1448 123.387 34.6798 121.945 32.6054C120.503 30.531 118.463 28.9459 116.096 28.0616L78.846 14.0929C76.0522 12.9754 72.9481 12.9754 70.1543 14.0308ZM63.5114 92.0695L50.3497 78.9079C49.775 78.3331 49.319 77.6507 49.008 76.8997C48.6969 76.1488 48.5368 75.3439 48.5368 74.531C48.5368 73.7181 48.6969 72.9132 49.008 72.1623C49.319 71.4113 49.775 70.7289 50.3497 70.1541C50.9245 69.5793 51.6069 69.1234 52.3579 68.8123C53.1089 68.5013 53.9138 68.3412 54.7266 68.3412C55.5395 68.3412 56.3444 68.5013 57.0954 68.8123C57.8464 69.1234 58.5287 69.5793 59.1035 70.1541L67.8573 78.9079L89.8347 56.9304C90.4095 56.3556 91.0919 55.8997 91.8429 55.5886C92.5939 55.2775 93.3988 55.1174 94.2116 55.1174C95.0245 55.1174 95.8294 55.2775 96.5804 55.5886C97.3314 55.8997 98.0137 56.3556 98.5885 56.9304C99.1633 57.5052 99.6192 58.1875 99.9303 58.9385C100.241 59.6895 100.401 60.4944 100.401 61.3073C100.401 62.1201 100.241 62.925 99.9303 63.676C99.6192 64.427 99.1633 65.1093 98.5885 65.6841L72.2652 92.0075C69.906 94.4908 65.9327 94.4908 63.5114 92.0695Z" fill="white"/>
</svg>
