<svg width="140" height="140" viewBox="0 0 140 140" fill="none" xmlns="http://www.w3.org/2000/svg">
<path d="M122.062 76.7842C123.029 69.3789 122.405 61.8526 120.231 54.708C118.057 47.5633 114.383 40.9649 109.455 35.3534C104.527 29.742 98.4586 25.2467 91.6547 22.1679C84.8507 19.0891 77.4681 17.4977 70 17.5C56.0761 17.5 42.7226 23.0312 32.8769 32.8769C23.0312 42.7226 17.5 56.0761 17.5 70C17.5 83.9239 23.0312 97.2774 32.8769 107.123C42.7226 116.969 56.0761 122.5 70 122.5M52.5 58.3333H52.5583M87.5 58.3333H87.5583" stroke="white" stroke-width="9" stroke-linecap="round" stroke-linejoin="round"/>
<path d="M55.4165 87.5C59.2548 91.2333 64.5165 93.3333 69.9998 93.3333C75.4832 93.3333 80.7448 91.2333 84.5832 87.5M87.4998 110.833L99.1665 122.5L122.5 99.1667" stroke="white" stroke-width="9" stroke-linecap="round" stroke-linejoin="round"/>
</svg>
