<svg width="278" height="139" viewBox="0 0 278 139" fill="none" xmlns="http://www.w3.org/2000/svg">
<path d="M220.767 21.1738V40.8362H240.366V102.367H262.293V40.8362H278V21.1738H220.767Z" fill="white"/>
<path d="M183.699 85.6443C186.552 86.1761 192.577 86.1654 193.617 81.5887C194.822 76.3238 187.16 74.4684 184.461 73.551C180.97 72.3623 177.839 70.9028 171.371 66.566C166.314 63.1673 163.883 57.1725 162.647 51.8139C161.751 47.9461 161.803 42.9941 162.421 40.1061C164.347 31.0467 172.792 24.5308 180.547 22.4562C184.214 21.4657 189.91 20.4858 199.56 22.206C205.451 23.2589 209.849 25.3648 213.372 28.3465L204.772 45.9965C201.981 43.3488 193.123 40.8257 188.138 41.0342C183.153 41.2531 182.196 45.3504 182.989 47.2165C184.029 49.6665 187.273 50.688 189.549 51.6681C192.351 52.8774 197.747 55.0978 200.425 56.3909C207.903 60.0395 215.236 66.3365 214.7 79.8584C214.123 94.3183 204.586 102.982 187.706 102.982C174.698 102.982 166.983 99.8854 162.101 95.8298L170.825 80.1813C173.781 82.4644 179.868 84.9354 183.699 85.6443Z" fill="white"/>
<path d="M69.2321 21.1841H90.2735L106.639 78.3463L123.715 21.1841H144.767L155.736 102.377H133.253L128.041 60.6858L116.527 102.377H93.8679L82.7137 61.0507L77.6876 102.377H58.0779L69.2321 21.1841Z" fill="white"/>
<path d="M25.8823 65.9092C25.8823 83.4132 32.9889 99.2389 44.4315 110.592V96.5804V95.6944V52.3873V49.9791V21.2261C32.9889 32.5793 25.8823 48.4048 25.8823 65.9092Z" fill="white"/>
<path d="M22.6071 65.909C22.6071 48.6445 29.1678 32.9335 39.9101 21.1841H18.8787H17.7561H15.9743H13.5951H0.968139L0.813649 21.3509V22.0598C0.865147 22.7687 1.514 23.634 2.16286 23.9781V25.8755C1.89508 26.9702 1.19472 29.0448 0.710654 30.0248C0.49437 30.2437 0.278082 30.619 0.278082 30.9005V31.2862H0C0 31.5573 0.102993 31.943 0.216286 32.162C0.267783 32.2662 0.267783 32.4852 0.164789 32.5998C0.329579 32.9856 0.545864 33.7466 0.597361 34.1845C0.381077 34.4034 0.381077 34.7266 0.597361 35.0081L0.648859 35.0602C0.813649 35.3313 0.813649 35.8212 0.648859 36.1444V36.4157L0.813649 36.4677C0.968139 36.9578 1.514 37.8335 1.83329 38.2191C2.42035 38.3235 3.28549 38.928 3.61507 39.4701C3.93434 39.5745 4.20215 39.9602 4.20215 40.3458C4.36692 40.3978 4.53172 40.6794 4.58322 40.8359C4.74799 41.0027 5.11876 41.3883 5.23207 41.6075C5.39687 41.9304 5.71614 42.4205 5.93241 42.6917C6.14872 43.0146 6.6431 43.6194 6.96237 43.8907C7.23014 43.9427 7.55971 44.2136 7.66271 44.4848C7.66271 44.8081 7.44644 45.1937 7.12714 45.3605C7.02417 45.4125 6.85936 45.517 6.79756 45.6838C6.84906 46.3927 6.52979 47.5392 6.09722 48.1337C6.09722 48.9574 6.26199 50.4793 6.47829 51.2509H6.74606C7.23014 51.355 7.54941 51.793 7.49791 52.3351C7.44644 52.9919 7.71422 54.1385 7.98199 54.7434L8.19829 54.9101V56.818L8.36306 57.0368H8.47636C8.79563 57.1413 9.01194 57.5269 8.85744 57.9125C8.64117 58.2358 8.47636 58.8927 8.53816 59.2783H8.70293C9.24881 60.9673 9.13551 63.8657 8.53816 65.5543V65.7211V66.2632L8.85744 66.5968V67.4725L9.07374 67.6393C9.66079 68.0774 10.4744 69.0575 10.7422 69.714H11.2778L11.4426 69.9332V70.4229V70.5897H11.6074V70.7462V71.6219V71.8411C11.7722 72.1119 11.7104 72.4872 11.4426 72.7061V73.5818C11.2778 73.801 10.8555 74.1242 10.5774 74.2386V78.44C10.7937 78.6068 11.216 78.826 11.4426 78.9301C11.5559 78.9821 11.6074 79.0969 11.5559 79.2013C11.5044 79.3054 11.3911 79.3054 11.2881 79.3054V79.4722V81.2132V81.38H11.1233V81.5468V83.2879V83.4547C11.0203 83.5067 10.907 83.6215 10.9585 83.7259C10.9585 83.83 11.01 83.8927 11.1233 83.8927C11.2263 83.9448 11.3911 84.0595 11.4426 84.1636V85.0393C11.8237 85.4773 12.5755 86.1342 13.0081 86.4051V86.9578C13.1729 87.6143 13.7702 88.3232 14.3573 88.5424V90.0643C14.4088 90.7732 14.6251 92.0349 14.8929 92.6811C15.0577 92.9003 15.3769 93.1191 15.5932 93.2339V95.1521C16.1906 95.3085 17.375 95.5897 17.9723 95.6421V95.861V96.2986C18.0238 96.9555 18.4049 98.0397 18.8375 98.6445H19.8571L20.0734 98.8113V99.249C20.4545 100.01 21.3711 101.053 22.123 101.48V102.085V102.304H22.2878V102.471V103.993V104.212H22.4526V104.378V105.577L22.123 105.901V107.152V107.318H22.2878V107.475C22.4526 109.06 23.7915 110.259 25.4085 110.154C25.4703 110.154 25.5733 110.102 25.6248 110.102H26.2118H26.4281V110.269H26.5929V110.436V111.145C27.1388 111.415 28.1584 111.864 28.7455 112.02C29.1266 112.124 29.7239 112.562 30.0432 112.896V113.052V114.095V114.314H30.1977V114.481V114.971V115.189H30.3625V115.356V115.523L30.5273 115.68H31.0731L31.2276 115.846V117.587L31.3924 117.754H31.5572V117.921H31.722L31.9383 118.14V120.757V120.819C32.7519 121.695 34.4204 123.165 35.337 123.874V125.073L35.5533 125.24H35.718V125.458H35.883L36.0477 125.615V126.657C36.748 127.147 37.5617 128.284 37.7781 129.118V129.285L37.9324 129.452H38.2004C38.7357 129.504 39.4981 129.941 39.8174 130.327V132.068L39.9821 132.235H40.8471H41.0635V132.391H41.1975V132.558V133.111V133.278H41.3621V133.663C41.7431 134.268 42.5982 134.977 43.2985 135.196H43.5148L43.6282 135.363H44.1122L44.3798 135.477H44.4315V134.873V115.169C31.0422 103.065 22.6071 85.4877 22.6071 65.909Z" fill="white"/>
<path d="M56.1727 123.572V119.746C51.8982 117.171 47.9638 114.095 44.4414 110.592V115.127C48.0155 118.37 51.9396 121.205 56.1727 123.572Z" fill="white"/>
<path d="M87.7194 0C68.8204 0 51.8057 8.16304 39.9102 21.1843H44.4316V21.226C55.5854 10.1543 70.8594 3.31526 87.7194 3.31526C94.3009 3.31526 100.635 4.35779 106.578 6.28651V2.81485C100.614 0.979986 94.2802 0 87.7194 0Z" fill="white"/>
</svg>
